# xmcd
#
# Track frame offsets:
#	150
#	15494
#	29240
#	47103
#	60356
#	78858
#	93450
#	107495
#	125879
#	142448
#
# Disc length: 2101 seconds
# Revision: 0
# Processed by: cddbd v1.5.2PL0 Copyright (c) Steve Scherf et al.
# Submitted via: dBpowerAMP V12.0
#
DISCID=8a08330a
DTITLE=The Railsplitters - Jump In
DYEAR=2017
DGENRE=Bluegrass
TTITLE0=Everyone She Meets
TTITLE1=Jump In
TTITLE2=Lessons I've Learned
TTITLE3=Durango River
TTITLE4=To Do
TTITLE5=Somethin' Sweet
TTITLE6=Citronella
TTITLE7=Lemon Lime
TTITLE8=Boy of Five
TTITLE9=Baxses
EXTD=
EXTT0=
EXTT1=
EXTT2=
EXTT3=
EXTT4=
EXTT5=
EXTT6=
EXTT7=
EXTT8=
EXTT9=
PLAYORDER=
